<?xml version="1.0" encoding="UTF-8"?>
<!DOCTYPE svg PUBLIC "-//W3C//DTD SVG 1.1//EN" "http://www.w3.org/Graphics/SVG/1.1/DTD/svg11.dtd">
<svg xmlns="http://www.w3.org/2000/svg" version="1.1" width="100px" height="100px" style="shape-rendering:geometricPrecision; text-rendering:geometricPrecision; image-rendering:optimizeQuality; fill-rule:evenodd; clip-rule:evenodd" xmlns:xlink="http://www.w3.org/1999/xlink">
<g><path style="opacity:0.984" fill="#61ccf8" d="M 12.5,-0.5 C 37.1667,-0.5 61.8333,-0.5 86.5,-0.5C 88.7686,0.97576 91.1019,2.47576 93.5,4C 95.7519,6.73612 97.7519,9.56945 99.5,12.5C 99.5,17.5 99.5,22.5 99.5,27.5C 93.31,27.1771 87.31,27.5104 81.5,28.5C 76.1336,25.3109 70.6336,22.3109 65,19.5C 61.1016,21.5331 57.2682,23.6997 53.5,26C 52.7476,26.6708 52.4142,27.5041 52.5,28.5C 47.5947,29.4454 42.5947,29.7787 37.5,29.5C 44.2625,24.6086 51.2625,19.942 58.5,15.5C 54.9226,11.7067 50.5892,10.2067 45.5,11C 35.8736,16.6023 26.207,22.269 16.5,28C 15.565,30.3806 15.2317,32.8806 15.5,35.5C 14.596,34.791 14.2627,33.791 14.5,32.5C 9.5,32.5 4.5,32.5 -0.5,32.5C -0.5,25.8333 -0.5,19.1667 -0.5,12.5C 0.97576,10.2314 2.47576,7.89805 4,5.5C 6.73612,3.24806 9.56945,1.24806 12.5,-0.5 Z"/></g>
<g><path style="opacity:1" fill="#fdfdfe" d="M 37.5,29.5 C 33.827,31.0002 30.4937,33.0002 27.5,35.5C 26.5233,38.2869 26.19,41.2869 26.5,44.5C 29.5184,44.6646 32.5184,44.498 35.5,44C 36.435,41.6194 36.7683,39.1194 36.5,36.5C 39.1386,34.8442 41.8053,33.1776 44.5,31.5C 45.4992,45.1504 45.8325,58.8171 45.5,72.5C 42.7972,74.1807 40.1305,75.8474 37.5,77.5C 37.1667,77.5 36.8333,77.5 36.5,77.5C 36.6054,73.4517 36.2721,69.4517 35.5,65.5C 35.5,62.5 35.5,59.5 35.5,56.5C 32.1667,56.5 28.8333,56.5 25.5,56.5C 25.5,62.8333 25.5,69.1667 25.5,75.5C 21.9046,73.8977 18.5712,71.8977 15.5,69.5C 15.5,67.8333 15.5,66.1667 15.5,64.5C 15.5,54.8333 15.5,45.1667 15.5,35.5C 15.2317,32.8806 15.565,30.3806 16.5,28C 26.207,22.269 35.8736,16.6023 45.5,11C 50.5892,10.2067 54.9226,11.7067 58.5,15.5C 51.2625,19.942 44.2625,24.6086 37.5,29.5 Z"/></g>
<g><path style="opacity:1" fill="#fdfdfe" d="M 81.5,28.5 C 82.1174,28.6107 82.6174,28.944 83,29.5C 83.4983,32.8168 83.665,36.1501 83.5,39.5C 82.7494,40.5735 81.7494,40.7401 80.5,40C 74.9216,37.2943 69.4216,34.461 64,31.5C 63.5012,35.4862 63.3345,39.4862 63.5,43.5C 70.1024,43.6101 76.6024,44.2768 83,45.5C 83.4995,51.8246 83.6662,58.1579 83.5,64.5C 83.5,66.5 83.5,68.5 83.5,70.5C 81.3428,72.4121 79.0094,74.0787 76.5,75.5C 72.8822,77.1373 69.5488,79.1373 66.5,81.5C 60.9818,84.7594 55.3151,87.7594 49.5,90.5C 45.5415,88.8531 41.8748,86.6864 38.5,84C 39.0442,83.2828 39.7109,82.7828 40.5,82.5C 42.8333,81.1667 45.1667,79.8333 47.5,78.5C 52.1667,75.8333 56.8333,73.1667 61.5,70.5C 65.2168,68.8912 68.7168,66.8912 72,64.5C 72.4974,61.854 72.6641,59.1873 72.5,56.5C 69.5,56.5 66.5,56.5 63.5,56.5C 63.6621,58.5273 63.4955,60.5273 63,62.5C 59.8324,64.7515 56.4991,66.7515 53,68.5C 52.5034,66.1902 52.3367,63.8568 52.5,61.5C 52.5,50.5 52.5,39.5 52.5,28.5C 52.4142,27.5041 52.7476,26.6708 53.5,26C 57.2682,23.6997 61.1016,21.5331 65,19.5C 70.6336,22.3109 76.1336,25.3109 81.5,28.5 Z"/></g>
<g><path style="opacity:1" fill="#8ec1f8" d="M 52.5,28.5 C 52.5,39.5 52.5,50.5 52.5,61.5C 51.5655,60.4324 51.2322,59.099 51.5,57.5C 51.5,53.5 51.5,49.5 51.5,45.5C 51.5,42.1667 51.5,38.8333 51.5,35.5C 49.8333,35.5 48.1667,35.5 46.5,35.5C 46.5,38.8333 46.5,42.1667 46.5,45.5C 46.5,49.5 46.5,53.5 46.5,57.5C 46.5,61.5 46.5,65.5 46.5,69.5C 46.7373,70.791 46.404,71.791 45.5,72.5C 45.8325,58.8171 45.4992,45.1504 44.5,31.5C 41.8053,33.1776 39.1386,34.8442 36.5,36.5C 33.7131,35.5233 30.7131,35.19 27.5,35.5C 30.4937,33.0002 33.827,31.0002 37.5,29.5C 42.5947,29.7787 47.5947,29.4454 52.5,28.5 Z"/></g>
<g><path style="opacity:1" fill="#6cc2f8" d="M 81.5,28.5 C 87.31,27.5104 93.31,27.1771 99.5,27.5C 99.5,29.1667 99.5,30.8333 99.5,32.5C 94.5,32.5 89.5,32.5 84.5,32.5C 84.8016,35.0593 84.4682,37.3926 83.5,39.5C 83.665,36.1501 83.4983,32.8168 83,29.5C 82.6174,28.944 82.1174,28.6107 81.5,28.5 Z"/></g>
<g><path style="opacity:1" fill="#82b8f7" d="M -0.5,32.5 C 4.5,32.5 9.5,32.5 14.5,32.5C 14.2627,33.791 14.596,34.791 15.5,35.5C 15.5,45.1667 15.5,54.8333 15.5,64.5C 14.5655,63.4324 14.2322,62.099 14.5,60.5C 14.5,58.5 14.5,56.5 14.5,54.5C 14.5,51.5 14.5,48.5 14.5,45.5C 14.5,43.5 14.5,41.5 14.5,39.5C 9.5,39.5 4.5,39.5 -0.5,39.5C -0.5,37.1667 -0.5,34.8333 -0.5,32.5 Z"/></g>
<g><path style="opacity:1" fill="#7faff7" d="M 27.5,35.5 C 30.7131,35.19 33.7131,35.5233 36.5,36.5C 36.7683,39.1194 36.435,41.6194 35.5,44C 32.5184,44.498 29.5184,44.6646 26.5,44.5C 26.19,41.2869 26.5233,38.2869 27.5,35.5 Z"/></g>
<g><path style="opacity:1" fill="#79abf7" d="M 51.5,45.5 C 49.8333,45.5 48.1667,45.5 46.5,45.5C 46.5,42.1667 46.5,38.8333 46.5,35.5C 48.1667,35.5 49.8333,35.5 51.5,35.5C 51.5,38.8333 51.5,42.1667 51.5,45.5 Z"/></g>
<g><path style="opacity:1" fill="#7caef7" d="M 83.5,39.5 C 84.4682,37.3926 84.8016,35.0593 84.5,32.5C 89.5,32.5 94.5,32.5 99.5,32.5C 99.5,36.8333 99.5,41.1667 99.5,45.5C 94.5,45.5 89.5,45.5 84.5,45.5C 84.5,48.5 84.5,51.5 84.5,54.5C 84.5,56.5 84.5,58.5 84.5,60.5C 84.7678,62.099 84.4345,63.4324 83.5,64.5C 83.6662,58.1579 83.4995,51.8246 83,45.5C 76.6024,44.2768 70.1024,43.6101 63.5,43.5C 63.3345,39.4862 63.5012,35.4862 64,31.5C 69.4216,34.461 74.9216,37.2943 80.5,40C 81.7494,40.7401 82.7494,40.5735 83.5,39.5 Z"/></g>
<g><path style="opacity:1" fill="#7ca7f7" d="M -0.5,39.5 C 4.5,39.5 9.5,39.5 14.5,39.5C 14.5,41.5 14.5,43.5 14.5,45.5C 9.5,45.5 4.5,45.5 -0.5,45.5C -0.5,43.5 -0.5,41.5 -0.5,39.5 Z"/></g>
<g><path style="opacity:1" fill="#8a96f6" d="M -0.5,45.5 C 4.5,45.5 9.5,45.5 14.5,45.5C 14.5,48.5 14.5,51.5 14.5,54.5C 9.5,54.5 4.5,54.5 -0.5,54.5C -0.5,51.5 -0.5,48.5 -0.5,45.5 Z"/></g>
<g><path style="opacity:1" fill="#8a96f6" d="M 99.5,45.5 C 99.5,48.5 99.5,51.5 99.5,54.5C 94.5,54.5 89.5,54.5 84.5,54.5C 84.5,51.5 84.5,48.5 84.5,45.5C 89.5,45.5 94.5,45.5 99.5,45.5 Z"/></g>
<g><path style="opacity:1" fill="#8d92f5" d="M 46.5,45.5 C 48.1667,45.5 49.8333,45.5 51.5,45.5C 51.5,49.5 51.5,53.5 51.5,57.5C 49.8333,57.5 48.1667,57.5 46.5,57.5C 46.5,53.5 46.5,49.5 46.5,45.5 Z"/></g>
<g><path style="opacity:1" fill="#9587f5" d="M -0.5,54.5 C 4.5,54.5 9.5,54.5 14.5,54.5C 14.5,56.5 14.5,58.5 14.5,60.5C 9.5,60.5 4.5,60.5 -0.5,60.5C -0.5,58.5 -0.5,56.5 -0.5,54.5 Z"/></g>
<g><path style="opacity:1" fill="#9587f5" d="M 84.5,54.5 C 89.5,54.5 94.5,54.5 99.5,54.5C 99.5,56.5 99.5,58.5 99.5,60.5C 94.5,60.5 89.5,60.5 84.5,60.5C 84.5,58.5 84.5,56.5 84.5,54.5 Z"/></g>
<g><path style="opacity:1" fill="#a388f5" d="M 35.5,65.5 C 32.5,65.5 29.5,65.5 26.5,65.5C 26.8128,69.0419 26.4794,72.3752 25.5,75.5C 25.5,69.1667 25.5,62.8333 25.5,56.5C 28.8333,56.5 32.1667,56.5 35.5,56.5C 35.5,59.5 35.5,62.5 35.5,65.5 Z"/></g>
<g><path style="opacity:1" fill="#a378f4" d="M -0.5,60.5 C 4.5,60.5 9.5,60.5 14.5,60.5C 14.2322,62.099 14.5655,63.4324 15.5,64.5C 15.5,66.1667 15.5,67.8333 15.5,69.5C 10.1667,69.5 4.83333,69.5 -0.5,69.5C -0.5,66.5 -0.5,63.5 -0.5,60.5 Z"/></g>
<g><path style="opacity:1" fill="#a27cf4" d="M 61.5,70.5 C 56.6946,69.5128 51.6946,69.1795 46.5,69.5C 46.5,65.5 46.5,61.5 46.5,57.5C 48.1667,57.5 49.8333,57.5 51.5,57.5C 51.2322,59.099 51.5655,60.4324 52.5,61.5C 52.3367,63.8568 52.5034,66.1902 53,68.5C 56.4991,66.7515 59.8324,64.7515 63,62.5C 63.4955,60.5273 63.6621,58.5273 63.5,56.5C 66.5,56.5 69.5,56.5 72.5,56.5C 72.6641,59.1873 72.4974,61.854 72,64.5C 68.7168,66.8912 65.2168,68.8912 61.5,70.5 Z"/></g>
<g><path style="opacity:1" fill="#a378f4" d="M 84.5,60.5 C 89.5,60.5 94.5,60.5 99.5,60.5C 99.5,63.5 99.5,66.5 99.5,69.5C 94.0735,69.2175 88.7401,69.5509 83.5,70.5C 83.5,68.5 83.5,66.5 83.5,64.5C 84.4345,63.4324 84.7678,62.099 84.5,60.5 Z"/></g>
<g><path style="opacity:1" fill="#af6af4" d="M 99.5,69.5 C 99.5,71.5 99.5,73.5 99.5,75.5C 91.8333,75.5 84.1667,75.5 76.5,75.5C 79.0094,74.0787 81.3428,72.4121 83.5,70.5C 88.7401,69.5509 94.0735,69.2175 99.5,69.5 Z"/></g>
<g><path style="opacity:1" fill="#b068f3" d="M 35.5,65.5 C 36.2721,69.4517 36.6054,73.4517 36.5,77.5C 24.1667,77.5 11.8333,77.5 -0.5,77.5C -0.5,74.8333 -0.5,72.1667 -0.5,69.5C 4.83333,69.5 10.1667,69.5 15.5,69.5C 18.5712,71.8977 21.9046,73.8977 25.5,75.5C 26.4794,72.3752 26.8128,69.0419 26.5,65.5C 29.5,65.5 32.5,65.5 35.5,65.5 Z"/></g>
<g><path style="opacity:1" fill="#b36bf3" d="M 46.5,69.5 C 51.6946,69.1795 56.6946,69.5128 61.5,70.5C 56.8333,73.1667 52.1667,75.8333 47.5,78.5C 44.3752,77.5206 41.0419,77.1872 37.5,77.5C 40.1305,75.8474 42.7972,74.1807 45.5,72.5C 46.404,71.791 46.7373,70.791 46.5,69.5 Z"/></g>
<g><path style="opacity:0.999" fill="#b95cf3" d="M -0.5,77.5 C 11.8333,77.5 24.1667,77.5 36.5,77.5C 36.8333,77.5 37.1667,77.5 37.5,77.5C 41.0419,77.1872 44.3752,77.5206 47.5,78.5C 45.1667,79.8333 42.8333,81.1667 40.5,82.5C 27.0102,81.5043 13.3435,81.171 -0.5,81.5C -0.5,80.1667 -0.5,78.8333 -0.5,77.5 Z"/></g>
<g><path style="opacity:0.999" fill="#b85ef3" d="M 76.5,75.5 C 84.1667,75.5 91.8333,75.5 99.5,75.5C 99.5,77.5 99.5,79.5 99.5,81.5C 88.5,81.5 77.5,81.5 66.5,81.5C 69.5488,79.1373 72.8822,77.1373 76.5,75.5 Z"/></g>
<g><path style="opacity:0.975" fill="#c251f3" d="M -0.5,81.5 C 13.3435,81.171 27.0102,81.5043 40.5,82.5C 39.7109,82.7828 39.0442,83.2828 38.5,84C 41.8748,86.6864 45.5415,88.8531 49.5,90.5C 55.3151,87.7594 60.9818,84.7594 66.5,81.5C 77.5,81.5 88.5,81.5 99.5,81.5C 99.5,83.1667 99.5,84.8333 99.5,86.5C 98.0242,88.7686 96.5242,91.1019 95,93.5C 92.2639,95.7519 89.4305,97.7519 86.5,99.5C 61.8333,99.5 37.1667,99.5 12.5,99.5C 10.2314,98.0242 7.89805,96.5242 5.5,95C 3.24806,92.2639 1.24806,89.4305 -0.5,86.5C -0.5,84.8333 -0.5,83.1667 -0.5,81.5 Z"/></g>
</svg>
